{
	"asset":{
		"generator":"Khronos glTF Blender I/O v3.6.27",
		"version":"2.0"
	},
	"extensionsUsed":[
		"KHR_materials_transmission"
	],
	"scene":0,
	"scenes":[
		{
			"name":"Scene",
			"nodes":[
				0
			]
		}
	],
	"nodes":[
		{
			"mesh":0,
			"name":"Plane"
		}
	],
	"materials":[
		{
			"doubleSided":true,
			"extensions":{
				"KHR_materials_transmission":{
					"transmissionFactor":1
				}
			},
			"name":"BottleMat",
			"pbrMetallicRoughness":{
				"metallicFactor":0
			}
		},
		{
			"doubleSided":true,
			"name":"WoodMat",
			"pbrMetallicRoughness":{
				"baseColorFactor":[
					0.21404114365577698,
					0.21404114365577698,
					0.21404114365577698,
					1
				],
				"baseColorTexture":{
					"index":0
				},
				"metallicFactor":0,
				"metallicRoughnessTexture":{
					"index":1
				}
			}
		},
		{
			"doubleSided":true,
			"name":"WoodMat.001",
			"pbrMetallicRoughness":{
				"baseColorFactor":[
					0.5382355451583862,
					0.3511943519115448,
					0,
					1
				],
				"baseColorTexture":{
					"index":2
				},
				"metallicFactor":0,
				"metallicRoughnessTexture":{
					"index":3
				}
			}
		}
	],
	"meshes":[
		{
			"name":"Plane",
			"primitives":[
				{
					"attributes":{
						"POSITION":0,
						"NORMAL":1,
						"TEXCOORD_0":2
					},
					"indices":3,
					"material":0
				},
				{
					"attributes":{
						"POSITION":4,
						"NORMAL":5,
						"TEXCOORD_0":6
					},
					"indices":7,
					"material":1
				},
				{
					"attributes":{
						"POSITION":8,
						"NORMAL":9,
						"TEXCOORD_0":10
					},
					"indices":11,
					"material":2
				}
			]
		}
	],
	"textures":[
		{
			"sampler":0,
			"source":0
		},
		{
			"sampler":0,
			"source":1
		},
		{
			"sampler":0,
			"source":0
		},
		{
			"sampler":0,
			"source":1
		}
	],
	"images":[
		{
			"bufferView":8,
			"mimeType":"image/jpeg",
			"name":"wood_table_001_diff_1k"
		},
		{
			"bufferView":9,
			"mimeType":"image/png",
			"name":"wood_table_001_rough_1k"
		}
	],
	"accessors":[
		{
			"bufferView":0,
			"componentType":5126,
			"count":7818,
			"max":[
				0.2292376160621643,
				0.18928591907024384,
				0.12383750081062317
			],
			"min":[
				-0.11476237326860428,
				-0.1892828345298767,
				-0.12383750081062317
			],
			"type":"VEC3"
		},
		{
			"bufferView":1,
			"componentType":5126,
			"count":7818,
			"type":"VEC3"
		},
		{
			"bufferView":2,
			"componentType":5126,
			"count":7818,
			"type":"VEC2"
		},
		{
			"bufferView":3,
			"componentType":5123,
			"count":43704,
			"type":"SCALAR"
		},
		{
			"bufferView":4,
			"componentType":5126,
			"count":24516,
			"max":[
				0.12150000780820847,
				0.19840937852859497,
				0.13296250998973846
			],
			"min":[
				-0.12000000476837158,
				-0.19840937852859497,
				-0.13296250998973846
			],
			"type":"VEC3"
		},
		{
			"bufferView":5,
			"componentType":5126,
			"count":24516,
			"type":"VEC3"
		},
		{
			"bufferView":6,
			"componentType":5126,
			"count":24516,
			"type":"VEC2"
		},
		{
			"bufferView":7,
			"componentType":5123,
			"count":102456,
			"type":"SCALAR"
		},
		{
			"bufferView":10,
			"componentType":5126,
			"count":4944,
			"max":[
				0.12000001221895218,
				0.21428437530994415,
				0.14883750677108765
			],
			"min":[
				-0.1299993097782135,
				-0.21428437530994415,
				-0.14883750677108765
			],
			"type":"VEC3"
		},
		{
			"bufferView":11,
			"componentType":5126,
			"count":4944,
			"type":"VEC3"
		},
		{
			"bufferView":12,
			"componentType":5126,
			"count":4944,
			"type":"VEC2"
		},
		{
			"bufferView":13,
			"componentType":5123,
			"count":22680,
			"type":"SCALAR"
		}
	],
	"bufferViews":[
		{
			"buffer":0,
			"byteLength":93816,
			"byteOffset":0,
			"target":34962
		},
		{
			"buffer":0,
			"byteLength":93816,
			"byteOffset":93816,
			"target":34962
		},
		{
			"buffer":0,
			"byteLength":62544,
			"byteOffset":187632,
			"target":34962
		},
		{
			"buffer":0,
			"byteLength":87408,
			"byteOffset":250176,
			"target":34963
		},
		{
			"buffer":0,
			"byteLength":294192,
			"byteOffset":337584,
			"target":34962
		},
		{
			"buffer":0,
			"byteLength":294192,
			"byteOffset":631776,
			"target":34962
		},
		{
			"buffer":0,
			"byteLength":196128,
			"byteOffset":925968,
			"target":34962
		},
		{
			"buffer":0,
			"byteLength":204912,
			"byteOffset":1122096,
			"target":34963
		},
		{
			"buffer":0,
			"byteLength":215573,
			"byteOffset":1327008
		},
		{
			"buffer":0,
			"byteLength":962924,
			"byteOffset":1542584
		},
		{
			"buffer":0,
			"byteLength":59328,
			"byteOffset":2505508,
			"target":34962
		},
		{
			"buffer":0,
			"byteLength":59328,
			"byteOffset":2564836,
			"target":34962
		},
		{
			"buffer":0,
			"byteLength":39552,
			"byteOffset":2624164,
			"target":34962
		},
		{
			"buffer":0,
			"byteLength":45360,
			"byteOffset":2663716,
			"target":34963
		}
	],
	"samplers":[
		{
			"magFilter":9729,
			"minFilter":9987
		}
	],
	"buffers":[
		{
			"byteLength":2709076,
			"uri":"data:application/octet-stream;base64,"
		}
	]
}
